<svg width="63" height="65" viewBox="0 0 63 65" fill="none" xmlns="http://www.w3.org/2000/svg">
<g clip-path="url(#clip0_76_678)">
<path opacity="0.5" d="M35.1992 28H39.2001V32.0009H35.1992V28Z" fill="url(#paint0_linear_76_678)"/>
<path opacity="0.7" d="M31.1992 28H35.2001V32.0009H31.1992V28Z" fill="url(#paint1_linear_76_678)"/>
<path opacity="0.7" d="M27.1992 28H31.2001V32.0009H27.1992V28Z" fill="url(#paint2_linear_76_678)"/>
<path opacity="0.5" d="M23.1992 28H27.2001V32.0009H23.1992V28Z" fill="url(#paint3_linear_76_678)"/>
<path opacity="0.7" d="M39.1992 24H43.1983V28.0009H39.1992V24Z" fill="url(#paint4_linear_76_678)"/>
<path opacity="0.8" d="M35.1992 24H39.2001V28.0009H35.1992V24Z" fill="url(#paint5_linear_76_678)"/>
<path d="M31.1992 24H35.2001V28.0009H31.1992V24Z" fill="url(#paint6_linear_76_678)"/>
<path d="M27.1992 24H31.2001V28.0009H27.1992V24Z" fill="url(#paint7_linear_76_678)"/>
<path opacity="0.8" d="M23.1992 24H27.2001V28.0009H23.1992V24Z" fill="url(#paint8_linear_76_678)"/>
<path opacity="0.7" d="M19.1992 24H23.2001V28.0009H19.1992V24Z" fill="url(#paint9_linear_76_678)"/>
<path opacity="0.5" d="M43.1992 20.001H47.2001V24.0001H43.1992V20.001Z" fill="url(#paint10_linear_76_678)"/>
<path opacity="0.8" d="M39.1992 20.001H43.1983V24.0001H39.1992V20.001Z" fill="url(#paint11_linear_76_678)"/>
<path d="M35.2001 20.001H39.201V24.0001H35.2001V20.001ZM31.1992 20.001H35.2001V24.0001H31.1992V20.001Z" fill="url(#paint12_linear_76_678)"/>
<path d="M27.2001 20.001H31.201V24.0001H27.2001V20.001ZM23.1992 20.001H27.2001V24.0001H23.1992V20.001Z" fill="url(#paint13_linear_76_678)"/>
<path opacity="0.8" d="M19.1992 20.001H23.2001V24.0001H19.1992V20.001Z" fill="url(#paint14_linear_76_678)"/>
<path opacity="0.5" d="M15.1992 20.001H19.2001V24.0001H15.1992V20.001Z" fill="url(#paint15_linear_76_678)"/>
<path opacity="0.7" d="M43.1992 16H47.2001V20.0009H43.1992V16Z" fill="url(#paint16_linear_76_678)"/>
<path d="M39.1992 16H43.1983V20.0009H39.1992V16Z" fill="url(#paint17_linear_76_678)"/>
<path d="M35.2001 16H39.201V20.0009H35.2001V16ZM31.1992 16H35.2001V20.0009H31.1992V16Z" fill="url(#paint18_linear_76_678)"/>
<path d="M27.2001 16H31.201V20.0009H27.2001V16ZM23.1992 16H27.2001V20.0009H23.1992V16Z" fill="url(#paint19_linear_76_678)"/>
<path d="M19.1992 16H23.2001V20.0009H19.1992V16Z" fill="url(#paint20_linear_76_678)"/>
<path opacity="0.7" d="M15.1992 16H19.2001V20.0009H15.1992V16Z" fill="url(#paint21_linear_76_678)"/>
<path opacity="0.7" d="M43.1992 12.001H47.2001V16.0019H43.1992V12.001Z" fill="url(#paint22_linear_76_678)"/>
<path d="M39.1992 12.001H43.1983V16.0019H39.1992V12.001Z" fill="url(#paint23_linear_76_678)"/>
<path d="M35.2001 12.001H39.201V16.0019H35.2001V12.001ZM31.1992 12.001H35.2001V16.0019H31.1992V12.001Z" fill="url(#paint24_linear_76_678)"/>
<path d="M27.2001 12.001H31.201V16.0019H27.2001V12.001ZM23.1992 12.001H27.2001V16.0019H23.1992V12.001Z" fill="url(#paint25_linear_76_678)"/>
<path d="M19.1992 12.001H23.2001V16.0019H19.1992V12.001Z" fill="url(#paint26_linear_76_678)"/>
<path opacity="0.7" d="M15.1992 12.001H19.2001V16.0019H15.1992V12.001Z" fill="url(#paint27_linear_76_678)"/>
<path opacity="0.5" d="M43.1992 8H47.2001V12.0009H43.1992V8Z" fill="url(#paint28_linear_76_678)"/>
<path opacity="0.8" d="M39.1992 8H43.1983V12.0009H39.1992V8Z" fill="url(#paint29_linear_76_678)"/>
<path d="M35.2001 8H39.201V12.0009H35.2001V8ZM31.1992 8H35.2001V12.0009H31.1992V8Z" fill="url(#paint30_linear_76_678)"/>
<path d="M27.2001 8H31.201V12.0009H27.2001V8ZM23.1992 8H27.2001V12.0009H23.1992V8Z" fill="url(#paint31_linear_76_678)"/>
<path opacity="0.8" d="M19.1992 8H23.2001V12.0009H19.1992V8Z" fill="url(#paint32_linear_76_678)"/>
<path opacity="0.5" d="M15.1992 8H19.2001V12.0009H15.1992V8Z" fill="url(#paint33_linear_76_678)"/>
<path opacity="0.7" d="M39.1992 4.00098H43.1983V8.00185H39.1992V4.00098Z" fill="url(#paint34_linear_76_678)"/>
<path opacity="0.8" d="M35.1992 4.00098H39.2001V8.00185H35.1992V4.00098Z" fill="url(#paint35_linear_76_678)"/>
<path d="M31.1992 4.00098H35.2001V8.00185H31.1992V4.00098Z" fill="url(#paint36_linear_76_678)"/>
<path d="M27.1992 4.00098H31.2001V8.00185H27.1992V4.00098Z" fill="url(#paint37_linear_76_678)"/>
<path opacity="0.8" d="M23.1992 4.00098H27.2001V8.00185H23.1992V4.00098Z" fill="url(#paint38_linear_76_678)"/>
<path opacity="0.7" d="M19.1992 4.00098H23.2001V8.00185H19.1992V4.00098Z" fill="url(#paint39_linear_76_678)"/>
<path opacity="0.5" d="M35.1992 0H39.2001V4.00087H35.1992V0Z" fill="url(#paint40_linear_76_678)"/>
<path opacity="0.7" d="M31.1992 0H35.2001V4.00087H31.1992V0Z" fill="url(#paint41_linear_76_678)"/>
<path opacity="0.7" d="M27.1992 0H31.2001V4.00087H27.1992V0Z" fill="url(#paint42_linear_76_678)"/>
<path opacity="0.5" d="M23.1992 0H27.2001V4.00087H23.1992V0Z" fill="url(#paint43_linear_76_678)"/>
<path d="M25.7299 14.7313L26.8439 12.2374C27.2503 11.5974 27.1961 10.8151 26.7508 10.3749C26.6914 10.3152 26.6256 10.2624 26.5545 10.2174C26.4019 10.1245 26.2309 10.066 26.0534 10.0458C25.8759 10.0257 25.6962 10.0444 25.5266 10.1006C25.1415 10.2214 24.8128 10.4769 24.6005 10.8201C24.6005 10.8201 23.0768 14.3758 22.5061 15.9808C21.9355 17.5859 22.1675 20.515 24.3534 22.7093C26.6729 25.0289 30.0371 25.5639 32.179 23.952C32.2692 23.9053 32.3538 23.8485 32.4313 23.7828L39.0344 18.2649C39.3561 17.9956 39.8319 17.4521 39.4035 16.829C38.9751 16.206 38.1998 16.6344 37.8798 16.8409L34.0769 19.6059C34.0592 19.6209 34.0386 19.632 34.0164 19.6387C33.9942 19.6454 33.9709 19.6474 33.9479 19.6447C33.9249 19.642 33.9026 19.6346 33.8826 19.623C33.8626 19.6113 33.8451 19.5957 33.8314 19.577C33.7765 19.4923 33.7504 19.3922 33.7571 19.2915C33.7638 19.1907 33.8029 19.0949 33.8686 19.0183L39.6981 14.071C40.206 13.6173 40.2721 12.9585 39.8674 12.5065C39.4626 12.0545 38.8363 12.0765 38.33 12.5353L33.0814 16.6394C33.0567 16.6598 33.0281 16.6748 32.9973 16.6837C32.9665 16.6926 32.9343 16.695 32.9025 16.6909C32.8708 16.6868 32.8402 16.6761 32.8127 16.6597C32.7853 16.6433 32.7614 16.6214 32.7428 16.5954C32.6862 16.5396 32.6522 16.4649 32.6472 16.3856C32.6422 16.3063 32.6665 16.2279 32.7156 16.1654L38.6603 10.3969C38.8851 10.1869 39.0176 9.89631 39.0287 9.58882C39.0398 9.28133 38.9287 8.98196 38.7195 8.75627C38.6148 8.64813 38.4892 8.56235 38.3504 8.50415C38.2116 8.44594 38.0624 8.41651 37.9119 8.41765C37.5999 8.41627 37.2999 8.53799 37.0771 8.7564L31.0108 14.4536C30.8651 14.5993 30.5808 14.4536 30.5468 14.2843C30.5343 14.2226 30.554 14.1588 30.5993 14.115L35.2486 8.82065C35.3629 8.71628 35.4548 8.58987 35.5189 8.44902C35.583 8.30818 35.6178 8.15582 35.6215 8.00113C35.6251 7.84644 35.5973 7.69262 35.5399 7.54893C35.4825 7.40525 35.3965 7.27469 35.2873 7.16511C35.1781 7.05552 35.0478 6.96919 34.9042 6.91132C34.7607 6.85345 34.607 6.82523 34.4523 6.82836C34.2976 6.83149 34.1451 6.86592 34.0041 6.92956C33.8631 6.99319 33.7364 7.08473 33.6316 7.19865L26.5781 14.987C26.3259 15.2393 25.9534 15.2511 25.7756 15.1055C25.7478 15.0842 25.7245 15.0575 25.7071 15.027C25.6896 14.9965 25.6785 14.9628 25.6742 14.928C25.67 14.8932 25.6727 14.8578 25.6823 14.824C25.6918 14.7903 25.708 14.7587 25.7299 14.7313Z" fill="white"/>
</g>
<path d="M5.56172 39.1998V48.7998H3.90547V39.1998H5.56172ZM5.29922 45.1748H4.81172C4.81172 44.704 4.87422 44.2706 4.99922 43.8748C5.12422 43.479 5.3013 43.1352 5.53047 42.8436C5.75964 42.5477 6.03255 42.3186 6.34922 42.1561C6.67005 41.9936 7.02422 41.9123 7.41172 41.9123C7.74505 41.9123 8.04714 41.9602 8.31797 42.0561C8.59297 42.1477 8.82839 42.2956 9.02422 42.4998C9.22005 42.704 9.37005 42.9706 9.47422 43.2998C9.58255 43.6248 9.63672 44.0206 9.63672 44.4873V48.7998H7.97422V44.4748C7.97422 44.1623 7.92839 43.9165 7.83672 43.7373C7.74505 43.554 7.6138 43.4227 7.44297 43.3436C7.2763 43.2644 7.07005 43.2248 6.82422 43.2248C6.55755 43.2248 6.32839 43.2769 6.13672 43.3811C5.94505 43.4811 5.78672 43.6206 5.66172 43.7998C5.54089 43.979 5.44922 44.1852 5.38672 44.4186C5.32839 44.6519 5.29922 44.904 5.29922 45.1748ZM16.543 45.8061H18.2617C18.2159 46.4144 18.0471 46.954 17.7555 47.4248C17.4638 47.8915 17.0576 48.2581 16.5367 48.5248C16.0159 48.7915 15.3846 48.9248 14.643 48.9248C14.0721 48.9248 13.5576 48.8248 13.0992 48.6248C12.6451 48.4206 12.2555 48.1311 11.9305 47.7561C11.6096 47.3769 11.3638 46.9227 11.193 46.3936C11.0221 45.8602 10.9367 45.2623 10.9367 44.5998V43.9061C10.9367 43.2436 11.0242 42.6456 11.1992 42.1123C11.3742 41.579 11.6242 41.1248 11.9492 40.7498C12.2784 40.3706 12.6721 40.079 13.1305 39.8748C13.593 39.6706 14.1096 39.5686 14.6805 39.5686C15.4221 39.5686 16.0492 39.7061 16.5617 39.9811C17.0742 40.2519 17.4721 40.6248 17.7555 41.0998C18.0388 41.5748 18.2096 42.1206 18.268 42.7373H16.5492C16.5159 42.354 16.4326 42.029 16.2992 41.7623C16.1701 41.4956 15.9742 41.2936 15.7117 41.1561C15.4534 41.0144 15.1096 40.9436 14.6805 40.9436C14.3471 40.9436 14.0534 41.0061 13.7992 41.1311C13.5492 41.2561 13.3409 41.4436 13.1742 41.6936C13.0076 41.9394 12.8826 42.2477 12.7992 42.6186C12.7159 42.9852 12.6742 43.4102 12.6742 43.8936V44.5998C12.6742 45.0623 12.7117 45.4769 12.7867 45.8436C12.8617 46.2102 12.9784 46.5206 13.1367 46.7748C13.2951 47.029 13.4992 47.2227 13.7492 47.3561C13.9992 47.4894 14.2971 47.5561 14.643 47.5561C15.0638 47.5561 15.4055 47.4894 15.668 47.3561C15.9346 47.2227 16.1367 47.0269 16.2742 46.7686C16.4159 46.5102 16.5055 46.1894 16.543 45.8061ZM23.193 47.3623V44.2436C23.193 44.0144 23.1534 43.8165 23.0742 43.6498C22.9951 43.4831 22.8742 43.354 22.7117 43.2623C22.5492 43.1706 22.343 43.1248 22.093 43.1248C21.8721 43.1248 21.6784 43.1623 21.5117 43.2373C21.3492 43.3123 21.2242 43.4186 21.1367 43.5561C21.0492 43.6894 21.0055 43.8436 21.0055 44.0186H19.3492C19.3492 43.7394 19.4159 43.4748 19.5492 43.2248C19.6826 42.9706 19.8721 42.7456 20.118 42.5498C20.368 42.3498 20.6659 42.1936 21.0117 42.0811C21.3617 41.9686 21.7534 41.9123 22.1867 41.9123C22.6992 41.9123 23.1555 41.9998 23.5555 42.1748C23.9596 42.3456 24.2763 42.604 24.5055 42.9498C24.7388 43.2956 24.8555 43.7311 24.8555 44.2561V47.2061C24.8555 47.5436 24.8763 47.8331 24.918 48.0748C24.9638 48.3123 25.0305 48.5186 25.118 48.6936V48.7998H23.4367C23.3576 48.629 23.2971 48.4123 23.2555 48.1498C23.2138 47.8831 23.193 47.6206 23.193 47.3623ZM23.4242 44.6811L23.4367 45.6623H22.393C22.1346 45.6623 21.9076 45.6894 21.7117 45.7436C21.5159 45.7936 21.3555 45.8686 21.2305 45.9686C21.1055 46.0644 21.0117 46.1811 20.9492 46.3186C20.8867 46.4519 20.8555 46.604 20.8555 46.7748C20.8555 46.9415 20.893 47.0915 20.968 47.2248C21.0471 47.3581 21.1596 47.4644 21.3055 47.5436C21.4555 47.6186 21.6305 47.6561 21.8305 47.6561C22.1221 47.6561 22.3763 47.5977 22.593 47.4811C22.8096 47.3602 22.9784 47.2144 23.0992 47.0436C23.2201 46.8727 23.2846 46.7102 23.293 46.5561L23.768 47.2686C23.7096 47.4394 23.6221 47.6206 23.5055 47.8123C23.3888 48.004 23.2388 48.1831 23.0555 48.3498C22.8721 48.5165 22.6513 48.654 22.393 48.7623C22.1346 48.8706 21.8346 48.9248 21.493 48.9248C21.0555 48.9248 20.6638 48.8373 20.318 48.6623C19.9721 48.4873 19.6992 48.2477 19.4992 47.9436C19.2992 47.6394 19.1992 47.2936 19.1992 46.9061C19.1992 46.5477 19.2659 46.2311 19.3992 45.9561C19.5326 45.6811 19.7305 45.4498 19.993 45.2623C20.2555 45.0706 20.5805 44.9269 20.968 44.8311C21.3596 44.7311 21.8076 44.6811 22.3117 44.6811H23.4242ZM27.993 43.3373V51.3998H26.3367V42.0373H27.868L27.993 43.3373ZM32.3367 45.3498V45.4811C32.3367 45.9727 32.2784 46.429 32.1617 46.8498C32.0492 47.2665 31.8826 47.6311 31.6617 47.9436C31.4409 48.2519 31.1659 48.4936 30.8367 48.6686C30.5117 48.8394 30.1367 48.9248 29.7117 48.9248C29.2951 48.9248 28.9326 48.8456 28.6242 48.6873C28.3159 48.5248 28.0555 48.2956 27.843 47.9998C27.6305 47.704 27.4596 47.3602 27.3305 46.9686C27.2055 46.5727 27.1117 46.1415 27.0492 45.6748V45.2561C27.1117 44.7602 27.2055 44.3102 27.3305 43.9061C27.4596 43.4977 27.6305 43.1456 27.843 42.8498C28.0555 42.5498 28.3138 42.3186 28.618 42.1561C28.9263 41.9936 29.2867 41.9123 29.6992 41.9123C30.1284 41.9123 30.5055 41.9936 30.8305 42.1561C31.1596 42.3186 31.4367 42.5519 31.6617 42.8561C31.8867 43.1602 32.0555 43.5227 32.168 43.9436C32.2805 44.3644 32.3367 44.8331 32.3367 45.3498ZM30.6805 45.4811V45.3498C30.6805 45.0498 30.6534 44.7727 30.5992 44.5186C30.5451 44.2602 30.4617 44.0352 30.3492 43.8436C30.2367 43.6477 30.0909 43.4956 29.9117 43.3873C29.7326 43.279 29.5159 43.2248 29.2617 43.2248C29.0076 43.2248 28.7888 43.2665 28.6055 43.3498C28.4221 43.4331 28.2721 43.5519 28.1555 43.7061C28.0388 43.8602 27.9471 44.0436 27.8805 44.2561C27.818 44.4644 27.7763 44.6956 27.7555 44.9498V45.9873C27.793 46.2956 27.8659 46.5727 27.9742 46.8186C28.0826 47.0644 28.2409 47.2602 28.4492 47.4061C28.6617 47.5519 28.9367 47.6248 29.2742 47.6248C29.5284 47.6248 29.7451 47.5686 29.9242 47.4561C30.1034 47.3436 30.2492 47.1894 30.3617 46.9936C30.4742 46.7936 30.5555 46.5644 30.6055 46.3061C30.6555 46.0477 30.6805 45.7727 30.6805 45.4811ZM36.743 42.0373V43.2248H32.868V42.0373H36.743ZM33.9055 40.3748H35.5617V46.8498C35.5617 47.0498 35.5888 47.204 35.643 47.3123C35.6971 47.4206 35.7784 47.4936 35.8867 47.5311C35.9951 47.5686 36.1242 47.5873 36.2742 47.5873C36.3826 47.5873 36.4826 47.5811 36.5742 47.5686C36.6659 47.5561 36.743 47.5436 36.8055 47.5311L36.8117 48.7686C36.6742 48.8144 36.518 48.8519 36.343 48.8811C36.1721 48.9102 35.9784 48.9248 35.7617 48.9248C35.3909 48.9248 35.0659 48.8623 34.7867 48.7373C34.5076 48.6081 34.2909 48.4019 34.1367 48.1186C33.9826 47.8311 33.9055 47.4519 33.9055 46.9811V40.3748ZM40.618 47.6248C40.8513 47.6248 41.0596 47.579 41.243 47.4873C41.4263 47.3956 41.5721 47.2665 41.6805 47.0998C41.793 46.9331 41.8534 46.7394 41.8617 46.5186H43.418C43.4096 46.9769 43.2805 47.3873 43.0305 47.7498C42.7805 48.1123 42.4471 48.3998 42.0305 48.6123C41.618 48.8206 41.1555 48.9248 40.643 48.9248C40.1221 48.9248 39.668 48.8373 39.2805 48.6623C38.893 48.4873 38.5701 48.2436 38.3117 47.9311C38.0576 47.6186 37.8659 47.2561 37.7367 46.8436C37.6117 46.4311 37.5492 45.9894 37.5492 45.5186V45.3186C37.5492 44.8477 37.6117 44.4061 37.7367 43.9936C37.8659 43.5811 38.0576 43.2186 38.3117 42.9061C38.5701 42.5936 38.893 42.3498 39.2805 42.1748C39.668 41.9998 40.1201 41.9123 40.6367 41.9123C41.1826 41.9123 41.6617 42.0186 42.0742 42.2311C42.4909 42.4436 42.8159 42.7436 43.0492 43.1311C43.2867 43.5186 43.4096 43.9748 43.418 44.4998H41.8617C41.8534 44.2581 41.7992 44.0415 41.6992 43.8498C41.5992 43.6581 41.4576 43.504 41.2742 43.3873C41.0909 43.2706 40.868 43.2123 40.6055 43.2123C40.3263 43.2123 40.093 43.2706 39.9055 43.3873C39.7221 43.504 39.5784 43.6644 39.4742 43.8686C39.3742 44.0686 39.3034 44.2936 39.2617 44.5436C39.2242 44.7894 39.2055 45.0477 39.2055 45.3186V45.5186C39.2055 45.7936 39.2242 46.0561 39.2617 46.3061C39.3034 46.5561 39.3742 46.7811 39.4742 46.9811C39.5784 47.1769 39.7221 47.3331 39.9055 47.4498C40.093 47.5665 40.3305 47.6248 40.618 47.6248ZM46.1367 39.1998V48.7998H44.4805V39.1998H46.1367ZM45.8742 45.1748H45.3867C45.3867 44.704 45.4492 44.2706 45.5742 43.8748C45.6992 43.479 45.8763 43.1352 46.1055 42.8436C46.3346 42.5477 46.6076 42.3186 46.9242 42.1561C47.2451 41.9936 47.5992 41.9123 47.9867 41.9123C48.3201 41.9123 48.6221 41.9602 48.893 42.0561C49.168 42.1477 49.4034 42.2956 49.5992 42.4998C49.7951 42.704 49.9451 42.9706 50.0492 43.2998C50.1576 43.6248 50.2117 44.0206 50.2117 44.4873V48.7998H48.5492V44.4748C48.5492 44.1623 48.5034 43.9165 48.4117 43.7373C48.3201 43.554 48.1888 43.4227 48.018 43.3436C47.8513 43.2644 47.6451 43.2248 47.3992 43.2248C47.1326 43.2248 46.9034 43.2769 46.7117 43.3811C46.5201 43.4811 46.3617 43.6206 46.2367 43.7998C46.1159 43.979 46.0242 44.1852 45.9617 44.4186C45.9034 44.6519 45.8742 44.904 45.8742 45.1748ZM55.393 47.3623V44.2436C55.393 44.0144 55.3534 43.8165 55.2742 43.6498C55.1951 43.4831 55.0742 43.354 54.9117 43.2623C54.7492 43.1706 54.543 43.1248 54.293 43.1248C54.0721 43.1248 53.8784 43.1623 53.7117 43.2373C53.5492 43.3123 53.4242 43.4186 53.3367 43.5561C53.2492 43.6894 53.2055 43.8436 53.2055 44.0186H51.5492C51.5492 43.7394 51.6159 43.4748 51.7492 43.2248C51.8826 42.9706 52.0721 42.7456 52.318 42.5498C52.568 42.3498 52.8659 42.1936 53.2117 42.0811C53.5617 41.9686 53.9534 41.9123 54.3867 41.9123C54.8992 41.9123 55.3555 41.9998 55.7555 42.1748C56.1596 42.3456 56.4763 42.604 56.7055 42.9498C56.9388 43.2956 57.0555 43.7311 57.0555 44.2561V47.2061C57.0555 47.5436 57.0763 47.8331 57.118 48.0748C57.1638 48.3123 57.2305 48.5186 57.318 48.6936V48.7998H55.6367C55.5576 48.629 55.4971 48.4123 55.4555 48.1498C55.4138 47.8831 55.393 47.6206 55.393 47.3623ZM55.6242 44.6811L55.6367 45.6623H54.593C54.3346 45.6623 54.1076 45.6894 53.9117 45.7436C53.7159 45.7936 53.5555 45.8686 53.4305 45.9686C53.3055 46.0644 53.2117 46.1811 53.1492 46.3186C53.0867 46.4519 53.0555 46.604 53.0555 46.7748C53.0555 46.9415 53.093 47.0915 53.168 47.2248C53.2471 47.3581 53.3596 47.4644 53.5055 47.5436C53.6555 47.6186 53.8305 47.6561 54.0305 47.6561C54.3221 47.6561 54.5763 47.5977 54.793 47.4811C55.0096 47.3602 55.1784 47.2144 55.2992 47.0436C55.4201 46.8727 55.4846 46.7102 55.493 46.5561L55.968 47.2686C55.9096 47.4394 55.8221 47.6206 55.7055 47.8123C55.5888 48.004 55.4388 48.1831 55.2555 48.3498C55.0721 48.5165 54.8513 48.654 54.593 48.7623C54.3346 48.8706 54.0346 48.9248 53.693 48.9248C53.2555 48.9248 52.8638 48.8373 52.518 48.6623C52.1721 48.4873 51.8992 48.2477 51.6992 47.9436C51.4992 47.6394 51.3992 47.2936 51.3992 46.9061C51.3992 46.5477 51.4659 46.2311 51.5992 45.9561C51.7326 45.6811 51.9305 45.4498 52.193 45.2623C52.4555 45.0706 52.7805 44.9269 53.168 44.8311C53.5596 44.7311 54.0076 44.6811 54.5117 44.6811H55.6242Z" fill="white"/>
<path d="M3.28594 60.0543H1.50938V59.1215H3.28594C3.59531 59.1215 3.84531 59.0715 4.03594 58.9715C4.22656 58.8715 4.36563 58.734 4.45313 58.559C4.54375 58.3809 4.58906 58.1777 4.58906 57.9496C4.58906 57.734 4.54375 57.5324 4.45313 57.3449C4.36563 57.1543 4.22656 57.0012 4.03594 56.8855C3.84531 56.7699 3.59531 56.7121 3.28594 56.7121H1.87031V62.5996H0.69375V55.7746H3.28594C3.81406 55.7746 4.2625 55.8684 4.63125 56.0559C5.00313 56.2402 5.28594 56.4965 5.47969 56.8246C5.67344 57.1496 5.77031 57.5215 5.77031 57.9402C5.77031 58.3809 5.67344 58.759 5.47969 59.0746C5.28594 59.3902 5.00313 59.6324 4.63125 59.8012C4.2625 59.9699 3.81406 60.0543 3.28594 60.0543ZM7.84688 58.4934V62.5996H6.71719V57.5277H7.79531L7.84688 58.4934ZM9.39844 57.4949L9.38906 58.5449C9.32031 58.5324 9.24531 58.523 9.16406 58.5168C9.08594 58.5105 9.00781 58.5074 8.92969 58.5074C8.73594 58.5074 8.56563 58.5355 8.41875 58.5918C8.27188 58.6449 8.14844 58.723 8.04844 58.8262C7.95156 58.9262 7.87656 59.048 7.82344 59.1918C7.77031 59.3355 7.73906 59.4965 7.72969 59.6746L7.47188 59.6934C7.47188 59.3746 7.50313 59.0793 7.56563 58.8074C7.62813 58.5355 7.72188 58.2965 7.84688 58.0902C7.975 57.884 8.13438 57.723 8.325 57.6074C8.51875 57.4918 8.74219 57.434 8.99531 57.434C9.06406 57.434 9.1375 57.4402 9.21563 57.4527C9.29688 57.4652 9.35781 57.4793 9.39844 57.4949ZM11.3156 57.5277V62.5996H10.1813V57.5277H11.3156ZM10.1063 56.1965C10.1063 56.0246 10.1625 55.8824 10.275 55.7699C10.3906 55.6543 10.55 55.5965 10.7531 55.5965C10.9531 55.5965 11.1109 55.6543 11.2266 55.7699C11.3422 55.8824 11.4 56.0246 11.4 56.1965C11.4 56.3652 11.3422 56.5059 11.2266 56.6184C11.1109 56.7309 10.9531 56.7871 10.7531 56.7871C10.55 56.7871 10.3906 56.7309 10.275 56.6184C10.1625 56.5059 10.1063 56.3652 10.1063 56.1965ZM14.2031 61.7043L15.4453 57.5277H16.6172L14.8547 62.5996H14.1234L14.2031 61.7043ZM13.2516 57.5277L14.5172 61.723L14.5781 62.5996H13.8469L12.075 57.5277H13.2516ZM20.1 61.5824V59.1637C20.1 58.9824 20.0672 58.8262 20.0016 58.6949C19.9359 58.5637 19.8359 58.4621 19.7016 58.3902C19.5703 58.3184 19.4047 58.2824 19.2047 58.2824C19.0203 58.2824 18.8609 58.3137 18.7266 58.3762C18.5922 58.4387 18.4875 58.523 18.4125 58.6293C18.3375 58.7355 18.3 58.8559 18.3 58.9902H17.175C17.175 58.7902 17.2234 58.5965 17.3203 58.409C17.4172 58.2215 17.5578 58.0543 17.7422 57.9074C17.9266 57.7605 18.1469 57.6449 18.4031 57.5605C18.6594 57.4762 18.9469 57.434 19.2656 57.434C19.6469 57.434 19.9844 57.498 20.2781 57.6262C20.575 57.7543 20.8078 57.948 20.9766 58.2074C21.1484 58.4637 21.2344 58.7855 21.2344 59.173V61.4277C21.2344 61.659 21.25 61.8668 21.2813 62.0512C21.3156 62.2324 21.3641 62.3902 21.4266 62.5246V62.5996H20.2688C20.2156 62.4777 20.1734 62.323 20.1422 62.1355C20.1141 61.9449 20.1 61.7605 20.1 61.5824ZM20.2641 59.5152L20.2734 60.2137H19.4625C19.2531 60.2137 19.0688 60.234 18.9094 60.2746C18.75 60.3121 18.6172 60.3684 18.5109 60.4434C18.4047 60.5184 18.325 60.609 18.2719 60.7152C18.2188 60.8215 18.1922 60.9418 18.1922 61.0762C18.1922 61.2105 18.2234 61.334 18.2859 61.4465C18.3484 61.5559 18.4391 61.6418 18.5578 61.7043C18.6797 61.7668 18.8266 61.798 18.9984 61.798C19.2297 61.798 19.4313 61.7512 19.6031 61.6574C19.7781 61.5605 19.9156 61.4434 20.0156 61.3059C20.1156 61.1652 20.1688 61.0324 20.175 60.9074L20.5406 61.409C20.5031 61.5371 20.4391 61.6746 20.3484 61.8215C20.2578 61.9684 20.1391 62.109 19.9922 62.2434C19.8484 62.3746 19.675 62.4824 19.4719 62.5668C19.2719 62.6512 19.0406 62.6934 18.7781 62.6934C18.4469 62.6934 18.1516 62.6277 17.8922 62.4965C17.6328 62.3621 17.4297 62.1824 17.2828 61.9574C17.1359 61.7293 17.0625 61.4715 17.0625 61.184C17.0625 60.9152 17.1125 60.6777 17.2125 60.4715C17.3156 60.2621 17.4656 60.0871 17.6625 59.9465C17.8625 59.8059 18.1063 59.6996 18.3938 59.6277C18.6813 59.5527 19.0094 59.5152 19.3781 59.5152H20.2641ZM24.4875 61.7934C24.6719 61.7934 24.8375 61.7574 24.9844 61.6855C25.1344 61.6105 25.2547 61.5074 25.3453 61.3762C25.4391 61.2449 25.4906 61.0934 25.5 60.9215H26.5641C26.5578 61.2496 26.4609 61.548 26.2734 61.8168C26.0859 62.0855 25.8375 62.2996 25.5281 62.459C25.2188 62.6152 24.8766 62.6934 24.5016 62.6934C24.1141 62.6934 23.7766 62.6277 23.4891 62.4965C23.2016 62.3621 22.9625 62.1777 22.7719 61.9434C22.5813 61.709 22.4375 61.4387 22.3406 61.1324C22.2469 60.8262 22.2 60.498 22.2 60.148V59.984C22.2 59.634 22.2469 59.3059 22.3406 58.9996C22.4375 58.6902 22.5813 58.4184 22.7719 58.184C22.9625 57.9496 23.2016 57.7668 23.4891 57.6355C23.7766 57.5012 24.1125 57.434 24.4969 57.434C24.9031 57.434 25.2594 57.5152 25.5656 57.6777C25.8719 57.8371 26.1125 58.0605 26.2875 58.348C26.4656 58.6324 26.5578 58.9637 26.5641 59.3418H25.5C25.4906 59.1543 25.4438 58.9855 25.3594 58.8355C25.2781 58.6824 25.1625 58.5605 25.0125 58.4699C24.8656 58.3793 24.6891 58.334 24.4828 58.334C24.2547 58.334 24.0656 58.3809 23.9156 58.4746C23.7656 58.5652 23.6484 58.6902 23.5641 58.8496C23.4797 59.0059 23.4188 59.1824 23.3813 59.3793C23.3469 59.573 23.3297 59.7746 23.3297 59.984V60.148C23.3297 60.3574 23.3469 60.5605 23.3813 60.7574C23.4156 60.9543 23.475 61.1309 23.5594 61.2871C23.6469 61.4402 23.7656 61.5637 23.9156 61.6574C24.0656 61.748 24.2563 61.7934 24.4875 61.7934ZM28.9031 62.0465L30.2813 57.5277H31.4906L29.4563 63.373C29.4094 63.498 29.3484 63.634 29.2734 63.7809C29.1984 63.9277 29.1 64.0668 28.9781 64.198C28.8594 64.3324 28.7109 64.4402 28.5328 64.5215C28.3547 64.6059 28.1391 64.648 27.8859 64.648C27.7859 64.648 27.6891 64.6387 27.5953 64.6199C27.5047 64.6043 27.4188 64.5871 27.3375 64.5684L27.3328 63.7059C27.3641 63.709 27.4016 63.7121 27.4453 63.7152C27.4922 63.7184 27.5297 63.7199 27.5578 63.7199C27.7453 63.7199 27.9016 63.6965 28.0266 63.6496C28.1516 63.6059 28.2531 63.534 28.3313 63.434C28.4125 63.334 28.4813 63.1996 28.5375 63.0309L28.9031 62.0465ZM28.125 57.5277L29.3297 61.3246L29.5313 62.5152L28.7484 62.7168L26.9063 57.5277H28.125ZM34.4109 59.234V60.134H31.9313V59.234H34.4109ZM38.3203 55.7746V62.5996H37.1531V55.7746H38.3203ZM40.4625 55.7746V56.7121H35.0297V55.7746H40.4625ZM43.0359 62.6934C42.6609 62.6934 42.3219 62.6324 42.0188 62.5105C41.7188 62.3855 41.4625 62.2121 41.25 61.9902C41.0406 61.7684 40.8797 61.5074 40.7672 61.2074C40.6547 60.9074 40.5984 60.584 40.5984 60.2371V60.0496C40.5984 59.6527 40.6563 59.2934 40.7719 58.9715C40.8875 58.6496 41.0484 58.3746 41.2547 58.1465C41.4609 57.9152 41.7047 57.7387 41.9859 57.6168C42.2672 57.4949 42.5719 57.434 42.9 57.434C43.2625 57.434 43.5797 57.4949 43.8516 57.6168C44.1234 57.7387 44.3484 57.9105 44.5266 58.1324C44.7078 58.3512 44.8422 58.6121 44.9297 58.9152C45.0203 59.2184 45.0656 59.5527 45.0656 59.9184V60.4012H41.1469V59.5902H43.95V59.5012C43.9438 59.298 43.9031 59.1074 43.8281 58.9293C43.7563 58.7512 43.6453 58.6074 43.4953 58.498C43.3453 58.3887 43.1453 58.334 42.8953 58.334C42.7078 58.334 42.5406 58.3746 42.3938 58.4559C42.25 58.534 42.1297 58.648 42.0328 58.798C41.9359 58.948 41.8609 59.1293 41.8078 59.3418C41.7578 59.5512 41.7328 59.7871 41.7328 60.0496V60.2371C41.7328 60.459 41.7625 60.6652 41.8219 60.8559C41.8844 61.0434 41.975 61.2074 42.0938 61.348C42.2125 61.4887 42.3563 61.5996 42.525 61.6809C42.6938 61.759 42.8859 61.798 43.1016 61.798C43.3734 61.798 43.6156 61.7434 43.8281 61.634C44.0406 61.5246 44.225 61.3699 44.3813 61.1699L44.9766 61.7465C44.8672 61.9059 44.725 62.059 44.55 62.2059C44.375 62.3496 44.1609 62.4668 43.9078 62.5574C43.6578 62.648 43.3672 62.6934 43.0359 62.6934ZM47.0813 58.4934V62.5996H45.9516V57.5277H47.0297L47.0813 58.4934ZM48.6328 57.4949L48.6234 58.5449C48.5547 58.5324 48.4797 58.523 48.3984 58.5168C48.3203 58.5105 48.2422 58.5074 48.1641 58.5074C47.9703 58.5074 47.8 58.5355 47.6531 58.5918C47.5063 58.6449 47.3828 58.723 47.2828 58.8262C47.1859 58.9262 47.1109 59.048 47.0578 59.1918C47.0047 59.3355 46.9734 59.4965 46.9641 59.6746L46.7063 59.6934C46.7063 59.3746 46.7375 59.0793 46.8 58.8074C46.8625 58.5355 46.9563 58.2965 47.0813 58.0902C47.2094 57.884 47.3688 57.723 47.5594 57.6074C47.7531 57.4918 47.9766 57.434 48.2297 57.434C48.2984 57.434 48.3719 57.4402 48.45 57.4527C48.5313 57.4652 48.5922 57.4793 48.6328 57.4949ZM50.4703 58.559V62.5996H49.3406V57.5277H50.4047L50.4703 58.559ZM50.2875 59.8762L49.9031 59.8715C49.9031 59.5215 49.9469 59.198 50.0344 58.9012C50.1219 58.6043 50.25 58.3465 50.4188 58.1277C50.5875 57.9059 50.7969 57.7355 51.0469 57.6168C51.3 57.4949 51.5922 57.434 51.9234 57.434C52.1547 57.434 52.3656 57.4684 52.5563 57.5371C52.75 57.6027 52.9172 57.7074 53.0578 57.8512C53.2016 57.9949 53.3109 58.1793 53.3859 58.4043C53.4641 58.6293 53.5031 58.9012 53.5031 59.2199V62.5996H52.3734V59.3184C52.3734 59.0715 52.3359 58.8777 52.2609 58.7371C52.1891 58.5965 52.0844 58.4965 51.9469 58.4371C51.8125 58.3746 51.6516 58.3434 51.4641 58.3434C51.2516 58.3434 51.0703 58.384 50.9203 58.4652C50.7734 58.5465 50.6531 58.6574 50.5594 58.798C50.4656 58.9387 50.3969 59.1012 50.3531 59.2855C50.3094 59.4699 50.2875 59.6668 50.2875 59.8762ZM53.4328 59.5762L52.9031 59.6934C52.9031 59.3871 52.9453 59.098 53.0297 58.8262C53.1172 58.5512 53.2438 58.3105 53.4094 58.1043C53.5781 57.8949 53.7859 57.7309 54.0328 57.6121C54.2797 57.4934 54.5625 57.434 54.8813 57.434C55.1406 57.434 55.3719 57.4699 55.575 57.5418C55.7813 57.6105 55.9563 57.7199 56.1 57.8699C56.2438 58.0199 56.3531 58.2152 56.4281 58.4559C56.5031 58.6934 56.5406 58.9809 56.5406 59.3184V62.5996H55.4063V59.3137C55.4063 59.0574 55.3688 58.859 55.2938 58.7184C55.2219 58.5777 55.1188 58.4809 54.9844 58.4277C54.85 58.3715 54.6891 58.3434 54.5016 58.3434C54.3266 58.3434 54.1719 58.3762 54.0375 58.4418C53.9063 58.5043 53.7953 58.5934 53.7047 58.709C53.6141 58.8215 53.5453 58.9512 53.4984 59.098C53.4547 59.2449 53.4328 59.4043 53.4328 59.5762ZM60.5484 61.2262C60.5484 61.1137 60.5203 61.0121 60.4641 60.9215C60.4078 60.8277 60.3 60.7434 60.1406 60.6684C59.9844 60.5934 59.7531 60.5246 59.4469 60.4621C59.1781 60.4027 58.9313 60.3324 58.7063 60.2512C58.4844 60.1668 58.2938 60.0652 58.1344 59.9465C57.975 59.8277 57.8516 59.6871 57.7641 59.5246C57.6766 59.3621 57.6328 59.1746 57.6328 58.9621C57.6328 58.7559 57.6781 58.5605 57.7688 58.3762C57.8594 58.1918 57.9891 58.0293 58.1578 57.8887C58.3266 57.748 58.5313 57.6371 58.7719 57.5559C59.0156 57.4746 59.2875 57.434 59.5875 57.434C60.0125 57.434 60.3766 57.5059 60.6797 57.6496C60.9859 57.7902 61.2203 57.9824 61.3828 58.2262C61.5453 58.4668 61.6266 58.7387 61.6266 59.0418H60.4969C60.4969 58.9074 60.4625 58.7824 60.3938 58.6668C60.3281 58.548 60.2281 58.4527 60.0938 58.3809C59.9594 58.3059 59.7906 58.2684 59.5875 58.2684C59.3938 58.2684 59.2328 58.2996 59.1047 58.3621C58.9797 58.4215 58.8859 58.4996 58.8234 58.5965C58.7641 58.6934 58.7344 58.7996 58.7344 58.9152C58.7344 58.9996 58.75 59.0762 58.7813 59.1449C58.8156 59.2105 58.8719 59.2715 58.95 59.3277C59.0281 59.3809 59.1344 59.4309 59.2688 59.4777C59.4063 59.5246 59.5781 59.5699 59.7844 59.6137C60.1719 59.6949 60.5047 59.7996 60.7828 59.9277C61.0641 60.0527 61.2797 60.2152 61.4297 60.4152C61.5797 60.6121 61.6547 60.8621 61.6547 61.1652C61.6547 61.3902 61.6063 61.5965 61.5094 61.784C61.4156 61.9684 61.2781 62.1293 61.0969 62.2668C60.9156 62.4012 60.6984 62.5059 60.4453 62.5809C60.1953 62.6559 59.9141 62.6934 59.6016 62.6934C59.1422 62.6934 58.7531 62.6121 58.4344 62.4496C58.1156 62.284 57.8734 62.073 57.7078 61.8168C57.5453 61.5574 57.4641 61.2887 57.4641 61.0105H58.5563C58.5688 61.2199 58.6266 61.3871 58.7297 61.5121C58.8359 61.634 58.9672 61.723 59.1234 61.7793C59.2828 61.8324 59.4469 61.859 59.6156 61.859C59.8188 61.859 59.9891 61.8324 60.1266 61.7793C60.2641 61.723 60.3688 61.648 60.4406 61.5543C60.5125 61.4574 60.5484 61.348 60.5484 61.2262Z" fill="white"/>
<defs>
<linearGradient id="paint0_linear_76_678" x1="235.159" y1="-2781.42" x2="235.159" y2="419.962" gradientUnits="userSpaceOnUse">
<stop stop-color="#00D4BF"/>
<stop offset="1" stop-color="#0074BF"/>
</linearGradient>
<linearGradient id="paint1_linear_76_678" x1="231.159" y1="-2781.42" x2="231.159" y2="419.962" gradientUnits="userSpaceOnUse">
<stop stop-color="#00D4BF"/>
<stop offset="1" stop-color="#0074BF"/>
</linearGradient>
<linearGradient id="paint2_linear_76_678" x1="227.159" y1="-2781.42" x2="227.159" y2="419.962" gradientUnits="userSpaceOnUse">
<stop stop-color="#00D4BF"/>
<stop offset="1" stop-color="#0074BF"/>
</linearGradient>
<linearGradient id="paint3_linear_76_678" x1="223.159" y1="-2781.42" x2="223.159" y2="419.962" gradientUnits="userSpaceOnUse">
<stop stop-color="#00D4BF"/>
<stop offset="1" stop-color="#0074BF"/>
</linearGradient>
<linearGradient id="paint4_linear_76_678" x1="239.156" y1="-2385.5" x2="239.156" y2="815.877" gradientUnits="userSpaceOnUse">
<stop stop-color="#00D4BF"/>
<stop offset="1" stop-color="#0074BF"/>
</linearGradient>
<linearGradient id="paint5_linear_76_678" x1="235.159" y1="-2385.5" x2="235.159" y2="815.877" gradientUnits="userSpaceOnUse">
<stop stop-color="#00D4BF"/>
<stop offset="1" stop-color="#0074BF"/>
</linearGradient>
<linearGradient id="paint6_linear_76_678" x1="231.159" y1="-2385.5" x2="231.159" y2="815.877" gradientUnits="userSpaceOnUse">
<stop stop-color="#00D4BF"/>
<stop offset="1" stop-color="#0074BF"/>
</linearGradient>
<linearGradient id="paint7_linear_76_678" x1="227.159" y1="-2385.5" x2="227.159" y2="815.877" gradientUnits="userSpaceOnUse">
<stop stop-color="#00D4BF"/>
<stop offset="1" stop-color="#0074BF"/>
</linearGradient>
<linearGradient id="paint8_linear_76_678" x1="223.159" y1="-2385.5" x2="223.159" y2="815.877" gradientUnits="userSpaceOnUse">
<stop stop-color="#00D4BF"/>
<stop offset="1" stop-color="#0074BF"/>
</linearGradient>
<linearGradient id="paint9_linear_76_678" x1="219.159" y1="-2385.5" x2="219.159" y2="815.877" gradientUnits="userSpaceOnUse">
<stop stop-color="#00D4BF"/>
<stop offset="1" stop-color="#0074BF"/>
</linearGradient>
<linearGradient id="paint10_linear_76_678" x1="243.327" y1="-1989.55" x2="243.327" y2="1211.78" gradientUnits="userSpaceOnUse">
<stop stop-color="#00D4BF"/>
<stop offset="1" stop-color="#0074BF"/>
</linearGradient>
<linearGradient id="paint11_linear_76_678" x1="239.156" y1="-1989.55" x2="239.156" y2="1211.78" gradientUnits="userSpaceOnUse">
<stop stop-color="#00D4BF"/>
<stop offset="1" stop-color="#0074BF"/>
</linearGradient>
<linearGradient id="paint12_linear_76_678" x1="431.119" y1="-1989.55" x2="431.119" y2="1211.78" gradientUnits="userSpaceOnUse">
<stop stop-color="#00D4BF"/>
<stop offset="1" stop-color="#0074BF"/>
</linearGradient>
<linearGradient id="paint13_linear_76_678" x1="423.119" y1="-1989.55" x2="423.119" y2="1211.78" gradientUnits="userSpaceOnUse">
<stop stop-color="#00D4BF"/>
<stop offset="1" stop-color="#0074BF"/>
</linearGradient>
<linearGradient id="paint14_linear_76_678" x1="219.159" y1="-1989.55" x2="219.159" y2="1211.78" gradientUnits="userSpaceOnUse">
<stop stop-color="#00D4BF"/>
<stop offset="1" stop-color="#0074BF"/>
</linearGradient>
<linearGradient id="paint15_linear_76_678" x1="215.159" y1="-1989.55" x2="215.159" y2="1211.78" gradientUnits="userSpaceOnUse">
<stop stop-color="#00D4BF"/>
<stop offset="1" stop-color="#0074BF"/>
</linearGradient>
<linearGradient id="paint16_linear_76_678" x1="243.327" y1="-1593.49" x2="243.327" y2="1607.88" gradientUnits="userSpaceOnUse">
<stop stop-color="#00D4BF"/>
<stop offset="1" stop-color="#0074BF"/>
</linearGradient>
<linearGradient id="paint17_linear_76_678" x1="239.156" y1="-1593.49" x2="239.156" y2="1607.88" gradientUnits="userSpaceOnUse">
<stop stop-color="#00D4BF"/>
<stop offset="1" stop-color="#0074BF"/>
</linearGradient>
<linearGradient id="paint18_linear_76_678" x1="431.119" y1="-1593.49" x2="431.119" y2="1607.88" gradientUnits="userSpaceOnUse">
<stop stop-color="#00D4BF"/>
<stop offset="1" stop-color="#0074BF"/>
</linearGradient>
<linearGradient id="paint19_linear_76_678" x1="423.119" y1="-1593.49" x2="423.119" y2="1607.88" gradientUnits="userSpaceOnUse">
<stop stop-color="#00D4BF"/>
<stop offset="1" stop-color="#0074BF"/>
</linearGradient>
<linearGradient id="paint20_linear_76_678" x1="219.159" y1="-1593.49" x2="219.159" y2="1607.88" gradientUnits="userSpaceOnUse">
<stop stop-color="#00D4BF"/>
<stop offset="1" stop-color="#0074BF"/>
</linearGradient>
<linearGradient id="paint21_linear_76_678" x1="215.159" y1="-1593.49" x2="215.159" y2="1607.88" gradientUnits="userSpaceOnUse">
<stop stop-color="#00D4BF"/>
<stop offset="1" stop-color="#0074BF"/>
</linearGradient>
<linearGradient id="paint22_linear_76_678" x1="243.327" y1="-1197.58" x2="243.327" y2="2003.8" gradientUnits="userSpaceOnUse">
<stop stop-color="#00D4BF"/>
<stop offset="1" stop-color="#0074BF"/>
</linearGradient>
<linearGradient id="paint23_linear_76_678" x1="239.155" y1="-1197.58" x2="239.155" y2="2003.8" gradientUnits="userSpaceOnUse">
<stop stop-color="#00D4BF"/>
<stop offset="1" stop-color="#0074BF"/>
</linearGradient>
<linearGradient id="paint24_linear_76_678" x1="431.119" y1="-1197.58" x2="431.119" y2="2003.8" gradientUnits="userSpaceOnUse">
<stop stop-color="#00D4BF"/>
<stop offset="1" stop-color="#0074BF"/>
</linearGradient>
<linearGradient id="paint25_linear_76_678" x1="423.119" y1="-1197.58" x2="423.119" y2="2003.8" gradientUnits="userSpaceOnUse">
<stop stop-color="#00D4BF"/>
<stop offset="1" stop-color="#0074BF"/>
</linearGradient>
<linearGradient id="paint26_linear_76_678" x1="219.159" y1="-1197.58" x2="219.159" y2="2003.8" gradientUnits="userSpaceOnUse">
<stop stop-color="#00D4BF"/>
<stop offset="1" stop-color="#0074BF"/>
</linearGradient>
<linearGradient id="paint27_linear_76_678" x1="215.159" y1="-1197.58" x2="215.159" y2="2003.8" gradientUnits="userSpaceOnUse">
<stop stop-color="#00D4BF"/>
<stop offset="1" stop-color="#0074BF"/>
</linearGradient>
<linearGradient id="paint28_linear_76_678" x1="243.327" y1="-801.489" x2="243.327" y2="2399.89" gradientUnits="userSpaceOnUse">
<stop stop-color="#00D4BF"/>
<stop offset="1" stop-color="#0074BF"/>
</linearGradient>
<linearGradient id="paint29_linear_76_678" x1="239.155" y1="-801.489" x2="239.155" y2="2399.89" gradientUnits="userSpaceOnUse">
<stop stop-color="#00D4BF"/>
<stop offset="1" stop-color="#0074BF"/>
</linearGradient>
<linearGradient id="paint30_linear_76_678" x1="431.119" y1="-801.489" x2="431.119" y2="2399.89" gradientUnits="userSpaceOnUse">
<stop stop-color="#00D4BF"/>
<stop offset="1" stop-color="#0074BF"/>
</linearGradient>
<linearGradient id="paint31_linear_76_678" x1="423.119" y1="-801.489" x2="423.119" y2="2399.89" gradientUnits="userSpaceOnUse">
<stop stop-color="#00D4BF"/>
<stop offset="1" stop-color="#0074BF"/>
</linearGradient>
<linearGradient id="paint32_linear_76_678" x1="219.159" y1="-801.489" x2="219.159" y2="2399.89" gradientUnits="userSpaceOnUse">
<stop stop-color="#00D4BF"/>
<stop offset="1" stop-color="#0074BF"/>
</linearGradient>
<linearGradient id="paint33_linear_76_678" x1="215.159" y1="-801.489" x2="215.159" y2="2399.89" gradientUnits="userSpaceOnUse">
<stop stop-color="#00D4BF"/>
<stop offset="1" stop-color="#0074BF"/>
</linearGradient>
<linearGradient id="paint34_linear_76_678" x1="239.156" y1="-405.569" x2="239.156" y2="2795.81" gradientUnits="userSpaceOnUse">
<stop stop-color="#00D4BF"/>
<stop offset="1" stop-color="#0074BF"/>
</linearGradient>
<linearGradient id="paint35_linear_76_678" x1="235.159" y1="-405.569" x2="235.159" y2="2795.81" gradientUnits="userSpaceOnUse">
<stop stop-color="#00D4BF"/>
<stop offset="1" stop-color="#0074BF"/>
</linearGradient>
<linearGradient id="paint36_linear_76_678" x1="231.159" y1="-405.569" x2="231.159" y2="2795.81" gradientUnits="userSpaceOnUse">
<stop stop-color="#00D4BF"/>
<stop offset="1" stop-color="#0074BF"/>
</linearGradient>
<linearGradient id="paint37_linear_76_678" x1="227.159" y1="-405.569" x2="227.159" y2="2795.81" gradientUnits="userSpaceOnUse">
<stop stop-color="#00D4BF"/>
<stop offset="1" stop-color="#0074BF"/>
</linearGradient>
<linearGradient id="paint38_linear_76_678" x1="223.159" y1="-405.569" x2="223.159" y2="2795.81" gradientUnits="userSpaceOnUse">
<stop stop-color="#00D4BF"/>
<stop offset="1" stop-color="#0074BF"/>
</linearGradient>
<linearGradient id="paint39_linear_76_678" x1="219.159" y1="-405.569" x2="219.159" y2="2795.81" gradientUnits="userSpaceOnUse">
<stop stop-color="#00D4BF"/>
<stop offset="1" stop-color="#0074BF"/>
</linearGradient>
<linearGradient id="paint40_linear_76_678" x1="235.159" y1="-9.48207" x2="235.159" y2="3191.89" gradientUnits="userSpaceOnUse">
<stop stop-color="#00D4BF"/>
<stop offset="1" stop-color="#0074BF"/>
</linearGradient>
<linearGradient id="paint41_linear_76_678" x1="231.159" y1="-9.48207" x2="231.159" y2="3191.89" gradientUnits="userSpaceOnUse">
<stop stop-color="#00D4BF"/>
<stop offset="1" stop-color="#0074BF"/>
</linearGradient>
<linearGradient id="paint42_linear_76_678" x1="227.159" y1="-9.48207" x2="227.159" y2="3191.89" gradientUnits="userSpaceOnUse">
<stop stop-color="#00D4BF"/>
<stop offset="1" stop-color="#0074BF"/>
</linearGradient>
<linearGradient id="paint43_linear_76_678" x1="223.159" y1="-9.48207" x2="223.159" y2="3191.89" gradientUnits="userSpaceOnUse">
<stop stop-color="#00D4BF"/>
<stop offset="1" stop-color="#0074BF"/>
</linearGradient>
<clipPath id="clip0_76_678">
<rect width="32" height="32" fill="white" transform="translate(15.1992)"/>
</clipPath>
</defs>
</svg>
