<svg width="38" height="28" viewBox="0 0 38 28" fill="none" xmlns="http://www.w3.org/2000/svg">
<rect width="38" height="28" rx="4.1" fill="#EEEEEE"/>
<path d="M28 17L27 11L24.5 17M16 17L17 11M10 11H11V17H11.5L14 11M23 11.5C23 11.3674 22.9473 11.2402 22.8536 11.1464C22.7598 11.0527 22.6326 11 22.5 11H21.75C21.029 11 20.413 11.521 20.295 12.233L20.205 12.767C20.1797 12.9187 20.1878 13.0742 20.2287 13.2224C20.2696 13.3707 20.3423 13.5084 20.4417 13.6257C20.5412 13.743 20.665 13.8373 20.8046 13.902C20.9442 13.9666 21.0962 14.0001 21.25 14C21.4038 13.9999 21.5558 14.0334 21.6954 14.098C21.835 14.1627 21.9588 14.257 22.0583 14.3743C22.1577 14.4916 22.2304 14.6293 22.2713 14.7776C22.3122 14.9258 22.3203 15.0813 22.295 15.233L22.205 15.767C22.1475 16.1114 21.9698 16.4243 21.7034 16.6501C21.437 16.8758 21.0992 16.9998 20.75 17H20C19.8674 17 19.7402 16.9473 19.6464 16.8536C19.5527 16.7598 19.5 16.6326 19.5 16.5M25 16H27.7" stroke="#222831" stroke-width="2" stroke-linecap="round" stroke-linejoin="round"/>
</svg>
