<svg width="45" height="45" viewBox="0 0 45 45" fill="none" xmlns="http://www.w3.org/2000/svg">
<g clip-path="url(#clip0_308_5078)">
<path d="M42.1117 11.25C40.668 11.9062 39.1117 12.3375 37.4992 12.5437C39.1492 11.55 40.4242 9.975 41.0242 8.08125C39.468 9.01875 37.743 9.675 35.9242 10.05C34.443 8.4375 32.3617 7.5 29.9992 7.5C25.593 7.5 21.993 11.1 21.993 15.5437C21.993 16.1812 22.068 16.8 22.1992 17.3813C15.5242 17.0437 9.58047 13.8375 5.62422 8.98125C4.93047 10.1625 4.53672 11.55 4.53672 13.0125C4.53672 15.8062 5.94297 18.2812 8.11797 19.6875C6.78672 19.6875 5.54922 19.3125 4.46172 18.75V18.8062C4.46172 22.7062 7.23672 25.9687 10.9117 26.7C9.73204 27.0243 8.49304 27.0692 7.29297 26.8312C7.80223 28.4296 8.7996 29.8283 10.1449 30.8305C11.4901 31.8327 13.1157 32.3882 14.793 32.4188C11.9498 34.6697 8.42549 35.8864 4.79922 35.8687C4.16172 35.8687 3.52422 35.8312 2.88672 35.7562C6.44922 38.0437 10.6867 39.375 15.2242 39.375C29.9992 39.375 38.118 27.1125 38.118 16.4812C38.118 16.125 38.118 15.7875 38.0992 15.4312C39.6742 14.3062 41.0242 12.8812 42.1117 11.25Z" fill="#EEEEEE"/>
</g>
<defs>
<clipPath id="clip0_308_5078">
<rect width="45" height="45" fill="white"/>
</clipPath>
</defs>
</svg>
