<svg width="18" height="18" viewBox="0 0 18 18" fill="none" xmlns="http://www.w3.org/2000/svg">
<path d="M16.5992 12.7254H13.2796C12.6693 12.7254 12.173 12.2291 12.173 11.6188V6.08605C12.173 5.47578 12.6693 4.97949 13.2796 4.97949H16.5992V6.08605H13.2796V11.6188H16.5992V12.7254ZM9.95988 4.97949H7.74677C7.1365 4.97949 6.64021 5.47578 6.64021 6.08605V12.7254H7.74677V9.959H9.95988V12.7254H11.0664V6.08605C11.0664 5.47578 10.5701 4.97949 9.95988 4.97949ZM7.74677 8.85244V6.08605H9.95988V8.85244H7.74677ZM4.42709 4.97949L3.58888 7.74589L3.32054 8.83972L3.06326 7.74589L2.21398 4.97949H1.10742V12.7254H2.21398V8.29916L2.12601 7.19482L2.44691 8.29916L3.32054 10.8586L4.19416 8.29916L4.51507 7.19261L4.42709 8.29916V12.7254H5.53365V4.97949H4.42709Z" fill="#EEEEEE"/>
</svg>
