<svg width="54" height="55" viewBox="0 0 54 55" fill="none" xmlns="http://www.w3.org/2000/svg">
<rect width="54" height="54.6652" rx="7" fill="url(#paint0_linear_104_114)"/>
<path d="M50.7656 31.6174C50.9062 30.4708 51 29.3051 51 28.1203C51 17.7056 45.4031 8.63809 37.1156 3.83203L35.5687 7.1571V29.8688L37.2844 31.6174H50.7656ZM3 29.8688C3 31.6174 4.71563 33.3659 6.43125 33.3659H20.1469C19.2937 36.8629 18.4313 40.3504 18.4313 42.099C18.4313 45.596 20.1469 49.0835 21 49.9625C21.0187 49.9817 21.8531 50.832 23.5687 50.832C26.1375 50.832 26.1375 48.214 26.1375 48.214C26.1375 48.1662 26.9906 43.8475 26.9906 42.099C26.9906 40.3504 30.4219 33.3659 32.1375 31.6174L33.8531 30.7479V6.28761L32.1375 5.41813H13.2844C9.85313 5.41813 8.1375 7.16665 8.1375 8.91518C8.1375 10.6637 9.85312 12.4122 11.5687 12.4122C8.1375 12.4122 6.42188 14.1608 6.42188 15.9093C6.42188 17.6578 8.1375 19.4063 9.85313 19.4063C6.42188 19.4063 4.70625 21.1549 4.70625 22.9034C4.70625 24.6519 6.42187 26.4004 8.1375 26.4004C4.71562 26.3718 3 28.1203 3 29.8688Z" fill="#C74D4D"/>
<defs>
<linearGradient id="paint0_linear_104_114" x1="51.3111" y1="54.6652" x2="2.68888" y2="-1.62589e-06" gradientUnits="userSpaceOnUse">
<stop stop-color="#E3A6A6"/>
<stop offset="1" stop-color="#EEEEEE"/>
</linearGradient>
</defs>
</svg>
