<svg width="54" height="55" viewBox="0 0 54 55" fill="none" xmlns="http://www.w3.org/2000/svg">
<rect width="54" height="54.6652" rx="7" fill="url(#paint0_linear_104_97)"/>
<path d="M50.7656 23.0467C50.9062 24.1933 51 25.359 51 26.5438C51 36.9585 45.4031 46.026 37.1156 50.832L35.5687 47.507V24.7952L37.2844 23.0467H50.7656ZM3 24.7952C3 23.0467 4.71563 21.2982 6.43125 21.2982H20.1469C19.2937 17.8011 18.4313 14.3136 18.4313 12.5651C18.4313 9.06806 20.1469 5.58056 21 4.70152C21.0187 4.68241 21.8531 3.83203 23.5687 3.83203C26.1375 3.83203 26.1375 6.45004 26.1375 6.45004C26.1375 6.49782 26.9906 10.8166 26.9906 12.5651C26.9906 14.3136 30.4219 21.2982 32.1375 23.0467L33.8531 23.9162V48.3765L32.1375 49.2459H13.2844C9.85313 49.2459 8.1375 47.4974 8.1375 45.7489C8.1375 44.0004 9.85312 42.2518 11.5687 42.2518C8.1375 42.2518 6.42188 40.5033 6.42188 38.7548C6.42188 37.0063 8.1375 35.2577 9.85313 35.2577C6.42188 35.2577 4.70625 33.5092 4.70625 31.7607C4.70625 30.0121 6.42187 28.2636 8.1375 28.2636C4.71562 28.2923 3 26.5438 3 24.7952Z" fill="#7BC74D"/>
<defs>
<linearGradient id="paint0_linear_104_97" x1="51.3111" y1="54.6652" x2="2.68888" y2="-1.62589e-06" gradientUnits="userSpaceOnUse">
<stop stop-color="#BDE3A6"/>
<stop offset="1" stop-color="#EEEEEE"/>
</linearGradient>
</defs>
</svg>
