<svg width="111" height="28" viewBox="0 0 111 28" fill="none" xmlns="http://www.w3.org/2000/svg">
<path d="M53.9883 17.5117C53.9883 17.207 53.9609 16.9297 53.9062 16.6797C53.8516 16.4297 53.7344 16.1992 53.5547 15.9883C53.3828 15.7773 53.1289 15.5664 52.793 15.3555C52.4648 15.1445 52.0352 14.9258 51.5039 14.6992C50.8711 14.4336 50.2578 14.1523 49.6641 13.8555C49.0703 13.5508 48.5352 13.1992 48.0586 12.8008C47.582 12.4023 47.2031 11.9336 46.9219 11.3945C46.6484 10.8477 46.5117 10.207 46.5117 9.47266C46.5117 8.75391 46.6406 8.10156 46.8984 7.51562C47.1641 6.92969 47.5391 6.42969 48.0234 6.01562C48.5078 5.59375 49.0742 5.26953 49.7227 5.04297C50.3789 4.81641 51.1094 4.70312 51.9141 4.70312C53.0078 4.70312 53.9531 4.92969 54.75 5.38281C55.5547 5.83594 56.1758 6.45703 56.6133 7.24609C57.0586 8.03516 57.2812 8.94141 57.2812 9.96484H53.8594C53.8594 9.48047 53.7891 9.05469 53.6484 8.6875C53.5156 8.3125 53.3008 8.01953 53.0039 7.80859C52.707 7.59766 52.3242 7.49219 51.8555 7.49219C51.418 7.49219 51.0547 7.58203 50.7656 7.76172C50.4844 7.93359 50.2734 8.17188 50.1328 8.47656C50 8.77344 49.9336 9.10938 49.9336 9.48438C49.9336 9.76562 50 10.0195 50.1328 10.2461C50.2734 10.4648 50.4648 10.6641 50.707 10.8438C50.9492 11.0156 51.2344 11.1836 51.5625 11.3477C51.8984 11.5117 52.2656 11.6719 52.6641 11.8281C53.4375 12.1328 54.1211 12.4688 54.7148 12.8359C55.3086 13.1953 55.8047 13.6016 56.2031 14.0547C56.6016 14.5 56.9023 15.0039 57.1055 15.5664C57.3086 16.1289 57.4102 16.7695 57.4102 17.4883C57.4102 18.1992 57.2852 18.8477 57.0352 19.4336C56.793 20.0117 56.4375 20.5117 55.9688 20.9336C55.5 21.3477 54.9336 21.668 54.2695 21.8945C53.6133 22.1211 52.8789 22.2344 52.0664 22.2344C51.2773 22.2344 50.5312 22.125 49.8281 21.9062C49.125 21.6797 48.5039 21.3398 47.9648 20.8867C47.4336 20.4258 47.0156 19.8438 46.7109 19.1406C46.4062 18.4297 46.2539 17.5898 46.2539 16.6211H49.6875C49.6875 17.1367 49.7383 17.5781 49.8398 17.9453C49.9414 18.3047 50.0977 18.5938 50.3086 18.8125C50.5195 19.0234 50.7773 19.1836 51.082 19.293C51.3945 19.3945 51.75 19.4453 52.1484 19.4453C52.6016 19.4453 52.9609 19.3594 53.2266 19.1875C53.5 19.0156 53.6953 18.7852 53.8125 18.4961C53.9297 18.207 53.9883 17.8789 53.9883 17.5117ZM66.5273 4.9375V22H63.1172V4.9375H66.5273ZM70.7695 4.9375V7.78516H58.957V4.9375H70.7695ZM84.4219 12.1445V14.9922C84.4219 16.1953 84.2734 17.25 83.9766 18.1562C83.6875 19.0547 83.2734 19.8086 82.7344 20.418C82.2031 21.0195 81.5586 21.4727 80.8008 21.7773C80.0508 22.082 79.2188 22.2344 78.3047 22.2344C77.3906 22.2344 76.5547 22.082 75.7969 21.7773C75.0469 21.4727 74.3984 21.0195 73.8516 20.418C73.3125 19.8086 72.8945 19.0547 72.5977 18.1562C72.3008 17.25 72.1523 16.1953 72.1523 14.9922V12.1445C72.1523 10.9102 72.2969 9.83203 72.5859 8.91016C72.875 7.98047 73.293 7.20703 73.8398 6.58984C74.3867 5.96484 75.0352 5.49609 75.7852 5.18359C76.5352 4.86328 77.3672 4.70312 78.2812 4.70312C79.1953 4.70312 80.0273 4.86328 80.7773 5.18359C81.5273 5.49609 82.1758 5.96484 82.7227 6.58984C83.2695 7.20703 83.6875 7.98047 83.9766 8.91016C84.2734 9.83203 84.4219 10.9102 84.4219 12.1445ZM81.0117 14.9922V12.1211C81.0117 11.3086 80.9531 10.6172 80.8359 10.0469C80.7188 9.46875 80.543 8.99609 80.3086 8.62891C80.0742 8.26172 79.7891 7.99219 79.4531 7.82031C79.1172 7.64844 78.7266 7.5625 78.2812 7.5625C77.8359 7.5625 77.4414 7.64844 77.0977 7.82031C76.7617 7.99219 76.4766 8.26172 76.2422 8.62891C76.0156 8.99609 75.8438 9.46875 75.7266 10.0469C75.6172 10.6172 75.5625 11.3086 75.5625 12.1211V14.9922C75.5625 15.7734 75.6211 16.4414 75.7383 16.9961C75.8555 17.5508 76.0312 18.0039 76.2656 18.3555C76.5 18.707 76.7852 18.9688 77.1211 19.1406C77.4648 19.3047 77.8594 19.3867 78.3047 19.3867C78.7422 19.3867 79.1289 19.3047 79.4648 19.1406C79.8086 18.9688 80.0938 18.707 80.3203 18.3555C80.5469 18.0039 80.7188 17.5508 80.8359 16.9961C80.9531 16.4414 81.0117 15.7734 81.0117 14.9922ZM86.9297 4.9375H92.4023C93.543 4.9375 94.5156 5.13281 95.3203 5.52344C96.125 5.91406 96.7422 6.49219 97.1719 7.25781C97.6016 8.02344 97.8164 8.96875 97.8164 10.0938C97.8164 11.0156 97.6914 11.8047 97.4414 12.4609C97.1914 13.1094 96.8359 13.6523 96.375 14.0898C95.9141 14.5195 95.3633 14.8633 94.7227 15.1211L93.6797 15.7422H89.2383L89.2266 12.8945H92.3086C92.7773 12.8945 93.1641 12.793 93.4688 12.5898C93.7812 12.3789 94.0117 12.0859 94.1602 11.7109C94.3164 11.3281 94.3945 10.8828 94.3945 10.375C94.3945 9.83594 94.3242 9.375 94.1836 8.99219C94.0508 8.60156 93.8359 8.30469 93.5391 8.10156C93.25 7.89062 92.8711 7.78516 92.4023 7.78516H90.3633V22H86.9297V4.9375ZM94.6758 22L91.5469 14.3945L95.1445 14.3828L98.3438 21.8359V22H94.6758ZM109.992 19.1641V22H102.574V19.1641H109.992ZM103.641 4.9375V22H100.207V4.9375H103.641ZM108.996 11.8516V14.6055H102.574V11.8516H108.996ZM109.969 4.9375V7.78516H102.574V4.9375H109.969Z" fill="#EEEEEE"/>
<g clip-path="url(#clip0_308_4465)">
<path d="M27.6603 0.5C24.1725 5.7954 17.0338 16.6477 13.6364 21.7981L12.4446 23.3671L10.067 26.5052L12.2931 23.2677L13.4062 21.6503C14.0501 20.5787 17.704 14.4249 18.4266 13.2141L25.9819 0.5H20.3118L19.9301 2.06048L22.8613 3.45326L12.2028 20.9056H11.8794L11.5938 18.3645L8.98601 3.35946L12.127 2.06048L12.5058 0.5H0.361305L0 2.06048L2.11247 3.04395C2.31643 3.14344 2.48834 3.28556 2.62821 3.47031C2.76807 3.65791 2.84965 3.84835 2.87587 4.04732L7.02506 27.5H11.25L14.4289 23.0971L26.3054 4.12122C26.4336 3.91089 26.5996 3.72044 26.8007 3.55558C27.0047 3.38788 27.2145 3.25429 27.4301 3.15481L29.6183 2.06048L30 0.5H27.6603Z" fill="#EEEEEE"/>
<path d="M12.127 2.06048L8.98601 3.35946L11.5938 18.3645L11.8794 20.9056H12.2028L7.02506 27.5L2.87587 4.04732C2.84965 3.84835 2.76807 3.65791 2.62821 3.47031C2.48834 3.28556 2.31643 3.14344 2.11247 3.04395L0 2.06048L0.361305 0.5H12.5058L12.127 2.06048Z" fill="#AFAFAF"/>
</g>
<defs>
<clipPath id="clip0_308_4465">
<rect width="30" height="27" fill="white" transform="translate(0 0.5)"/>
</clipPath>
</defs>
</svg>
