<svg width="38" height="28" viewBox="0 0 38 28" fill="none" xmlns="http://www.w3.org/2000/svg">
<rect width="38" height="28" rx="4.1" fill="#EEEEEE"/>
<path d="M19.0002 11.765C18.5687 11.3786 18.0345 11.1254 17.4622 11.036C16.8898 10.9465 16.3039 11.0247 15.775 11.2611C15.2462 11.4974 14.797 11.8818 14.4819 12.3678C14.1667 12.8539 13.999 13.4207 13.999 14C13.999 14.5793 14.1667 15.1461 14.4819 15.6322C14.797 16.1182 15.2462 16.5026 15.775 16.7389C16.3039 16.9753 16.8898 17.0535 17.4622 16.964C18.0345 16.8746 18.5687 16.6214 19.0002 16.235M18 14C18 14.394 18.0776 14.7841 18.2284 15.1481C18.3791 15.512 18.6001 15.8427 18.8787 16.1213C19.1573 16.3999 19.488 16.6209 19.8519 16.7716C20.2159 16.9224 20.606 17 21 17C21.394 17 21.7841 16.9224 22.1481 16.7716C22.512 16.6209 22.8427 16.3999 23.1213 16.1213C23.3999 15.8427 23.6209 15.512 23.7716 15.1481C23.9224 14.7841 24 14.394 24 14C24 13.606 23.9224 13.2159 23.7716 12.8519C23.6209 12.488 23.3999 12.1573 23.1213 11.8787C22.8427 11.6001 22.512 11.3791 22.1481 11.2284C21.7841 11.0776 21.394 11 21 11C20.606 11 20.2159 11.0776 19.8519 11.2284C19.488 11.3791 19.1573 11.6001 18.8787 11.8787C18.6001 12.1573 18.3791 12.488 18.2284 12.8519C18.0776 13.2159 18 13.606 18 14ZM10 9C10 8.46957 10.2107 7.96086 10.5858 7.58579C10.9609 7.21071 11.4696 7 12 7H26C26.5304 7 27.0391 7.21071 27.4142 7.58579C27.7893 7.96086 28 8.46957 28 9V19C28 19.5304 27.7893 20.0391 27.4142 20.4142C27.0391 20.7893 26.5304 21 26 21H12C11.4696 21 10.9609 20.7893 10.5858 20.4142C10.2107 20.0391 10 19.5304 10 19V9Z" stroke="#222831" stroke-width="2" stroke-linecap="round" stroke-linejoin="round"/>
</svg>
