<svg width="50" height="50" viewBox="0 0 50 50" fill="none" xmlns="http://www.w3.org/2000/svg">
<path d="M25 16.6657V43.7491M25 16.6657C24.2464 13.5603 22.9488 10.9053 21.2765 9.04721C19.6042 7.18908 17.6348 6.21394 15.625 6.24896C14.2437 6.24896 12.9189 6.79769 11.9422 7.77444C10.9654 8.7512 10.4167 10.076 10.4167 11.4573C10.4167 12.8386 10.9654 14.1634 11.9422 15.1401C12.9189 16.1169 14.2437 16.6656 15.625 16.6656M25 16.6657C25.7536 13.5603 27.0512 10.9053 28.7235 9.04721C30.3958 7.18908 32.3652 6.21394 34.375 6.24896C35.7563 6.24896 37.0811 6.79769 38.0578 7.77444C39.0346 8.7512 39.5833 10.076 39.5833 11.4573C39.5833 12.8386 39.0346 14.1634 38.0578 15.1401C37.0811 16.1169 35.7563 16.6656 34.375 16.6656M39.5833 24.9991V39.5824C39.5833 40.6875 39.1443 41.7473 38.3629 42.5287C37.5815 43.3101 36.5217 43.7491 35.4167 43.7491H14.5833C13.4783 43.7491 12.4185 43.3101 11.6371 42.5287C10.8557 41.7473 10.4167 40.6875 10.4167 39.5824V24.9991M6.25 18.7491C6.25 18.1965 6.46949 17.6666 6.86019 17.2759C7.25089 16.8852 7.7808 16.6657 8.33333 16.6657H41.6667C42.2192 16.6657 42.7491 16.8852 43.1398 17.2759C43.5305 17.6666 43.75 18.1965 43.75 18.7491V22.9157C43.75 23.4683 43.5305 23.9982 43.1398 24.3889C42.7491 24.7796 42.2192 24.9991 41.6667 24.9991H8.33333C7.7808 24.9991 7.25089 24.7796 6.86019 24.3889C6.46949 23.9982 6.25 23.4683 6.25 22.9157V18.7491Z" stroke="#EEEEEE" stroke-width="2" stroke-linecap="round" stroke-linejoin="round"/>
</svg>
