<svg width="39" height="39" viewBox="0 0 39 39" fill="none" xmlns="http://www.w3.org/2000/svg">
<g clip-path="url(#clip0_308_5073)">
<path d="M35.9583 0C31.4242 7.64891 22.1439 23.3245 17.7273 30.764L16.178 33.0303L13.0871 37.563L15.9811 32.8866L17.428 30.5505C18.2652 29.0026 23.0152 20.1138 23.9545 18.3648L33.7765 0H26.4053L25.9091 2.25403L29.7197 4.26582L15.8636 29.4748H15.4432L15.072 25.8043L11.6818 4.13033L15.7652 2.25403L16.2576 0H0.469697L0 2.25403L2.74621 3.6746C3.01136 3.8183 3.23485 4.02358 3.41667 4.29045C3.59848 4.56143 3.70455 4.83651 3.73864 5.12391L9.13258 39H14.625L18.7576 32.6403L34.197 5.23066C34.3636 4.92683 34.5795 4.65175 34.8409 4.41362C35.1061 4.17139 35.3788 3.97842 35.6591 3.83472L38.5038 2.25403L39 0H35.9583Z" fill="#EEEEEE"/>
<path d="M15.7652 2.25403L11.6818 4.13033L15.072 25.8043L15.4432 29.4748H15.8636L9.13258 39L3.73864 5.12391C3.70455 4.83651 3.59849 4.56143 3.41667 4.29045C3.23485 4.02358 3.01136 3.8183 2.74621 3.6746L0 2.25403L0.469697 0H16.2576L15.7652 2.25403Z" fill="#AFAFAF"/>
</g>
<defs>
<clipPath id="clip0_308_5073">
<rect width="39" height="39" fill="white"/>
</clipPath>
</defs>
</svg>
