<svg width="42" height="42" viewBox="0 0 42 42" fill="none" xmlns="http://www.w3.org/2000/svg">
<rect width="42" height="42" rx="7" fill="#393E46"/>
<path d="M20.9997 35.1663C19.04 35.1663 17.1983 34.7942 15.4747 34.05C13.7511 33.3058 12.2518 32.2966 10.9768 31.0226C9.70176 29.7485 8.69262 28.2492 7.94934 26.5247C7.20607 24.8001 6.83395 22.9585 6.83301 20.9997C6.83207 19.0409 7.20418 17.1992 7.94934 15.4747C8.69451 13.7501 9.70365 12.2508 10.9768 10.9768C12.2499 9.7027 13.7492 8.69356 15.4747 7.94934C17.2002 7.20512 19.0418 6.83301 20.9997 6.83301C22.9575 6.83301 24.7992 7.20512 26.5247 7.94934C28.2502 8.69356 29.7495 9.7027 31.0226 10.9768C32.2957 12.2508 33.3053 13.7501 34.0514 15.4747C34.7975 17.1992 35.1692 19.0409 35.1663 20.9997C35.1635 22.9585 34.7914 24.8001 34.05 26.5247C33.3086 28.2492 32.2995 29.7485 31.0226 31.0226C29.7457 32.2966 28.2464 33.3063 26.5247 34.0514C24.803 34.7966 22.9613 35.1682 20.9997 35.1663ZM20.9997 32.333C22.2747 32.333 23.5025 32.1266 24.683 31.7139C25.8636 31.3012 26.9497 30.7048 27.9413 29.9247L12.0747 14.058C11.2955 15.0497 10.6991 16.1358 10.2854 17.3163C9.87176 18.4969 9.6654 19.7247 9.66634 20.9997C9.66634 24.1636 10.7643 26.8434 12.9601 29.0393C15.1559 31.2351 17.8358 32.333 20.9997 32.333ZM29.9247 27.9413C30.7038 26.9497 31.3003 25.8636 31.7139 24.683C32.1276 23.5025 32.334 22.2747 32.333 20.9997C32.333 17.8358 31.2351 15.1559 29.0393 12.9601C26.8434 10.7643 24.1636 9.66634 20.9997 9.66634C19.7247 9.66634 18.4969 9.8727 17.3163 10.2854C16.1358 10.6981 15.0497 11.2946 14.058 12.0747L29.9247 27.9413Z" fill="#EEEEEE"/>
</svg>
