<svg width="42" height="42" viewBox="0 0 42 42" fill="none" xmlns="http://www.w3.org/2000/svg">
<rect width="42" height="42" rx="7" fill="#393E46"/>
<path fill-rule="evenodd" clip-rule="evenodd" d="M30.5628 19.2292V15.3333H32.6878V19.2292H36.5837V21.3542H32.6878V25.25H30.5628V21.3542H26.667V19.2292H30.5628ZM15.0957 21.4958C14.053 20.2605 13.2087 17.9542 13.2087 16.3392V13.9167C13.2087 12.4138 13.8057 10.9724 14.8684 9.90973C15.9311 8.84702 17.3724 8.25 18.8753 8.25C20.3782 8.25 21.8196 8.84702 22.8823 9.90973C23.945 10.9724 24.542 12.4138 24.542 13.9167V16.3392C24.542 17.9542 23.692 20.2676 22.655 21.4987L22.1436 22.105C21.3077 23.0952 21.5684 24.3547 22.7372 24.9242L30.7555 28.837C31.6267 29.262 32.3337 30.3854 32.3337 31.3629V32.3362C32.3329 32.7116 32.1831 33.0715 31.9172 33.3366C31.6513 33.6017 31.2911 33.7504 30.9156 33.75H6.83366C6.45843 33.75 6.09852 33.6011 5.83292 33.3361C5.56733 33.071 5.41774 32.7114 5.41699 32.3362V31.3629C5.41699 30.3925 6.12249 29.262 6.99516 28.8356L15.0135 24.9228C16.1766 24.3561 16.4472 23.0981 15.6085 22.1036L15.0957 21.4958Z" fill="#EEEEEE"/>
</svg>
