<svg width="45" height="45" viewBox="0 0 45 45" fill="none" xmlns="http://www.w3.org/2000/svg">
<path d="M18.75 28.125L28.4812 22.5L18.75 16.875V28.125ZM40.425 13.4437C40.6688 14.325 40.8375 15.5062 40.95 17.0062C41.0812 18.5062 41.1375 19.8 41.1375 20.925L41.25 22.5C41.25 26.6062 40.95 29.625 40.425 31.5562C39.9562 33.2437 38.8688 34.3312 37.1813 34.8C36.3 35.0437 34.6875 35.2125 32.2125 35.325C29.775 35.4562 27.5438 35.5125 25.4813 35.5125L22.5 35.625C14.6438 35.625 9.75 35.325 7.81875 34.8C6.13125 34.3312 5.04375 33.2437 4.575 31.5562C4.33125 30.675 4.1625 29.4937 4.05 27.9937C3.91875 26.4937 3.8625 25.2 3.8625 24.075L3.75 22.5C3.75 18.3937 4.05 15.375 4.575 13.4437C5.04375 11.7563 6.13125 10.6688 7.81875 10.2C8.7 9.95625 10.3125 9.7875 12.7875 9.675C15.225 9.54375 17.4562 9.4875 19.5187 9.4875L22.5 9.375C30.3563 9.375 35.25 9.675 37.1813 10.2C38.8688 10.6688 39.9562 11.7563 40.425 13.4437Z" fill="#EEEEEE"/>
</svg>
